<svg width="400" height="400" viewBox="0 0 400 400" fill="none" xmlns="http://www.w3.org/2000/svg">
<rect width="400" height="400" fill="white"/>
<path d="M200.083 30.0002C196.542 29.9949 193 30.1252 189.464 30.3856C185.927 30.646 182.406 31.0418 178.901 31.5679C175.396 32.0887 171.917 32.7449 168.458 33.5314C165 34.3179 161.578 35.2293 158.193 36.2762C154.802 37.3179 151.458 38.4845 148.156 39.7762C144.854 41.0679 141.61 42.4845 138.412 44.021C135.219 45.5574 132.089 47.2137 129.016 48.9845C125.943 50.7554 122.943 52.6356 120.016 54.6356C117.083 56.6304 114.235 58.7345 111.464 60.9429C108.688 63.1512 106.005 65.4637 103.406 67.8699C100.807 70.2814 98.3022 72.7866 95.8908 75.3856C93.4793 77.9845 91.1668 80.672 88.9585 83.4429C86.7449 86.2137 84.646 89.0627 82.646 91.9949C80.6512 94.922 78.7658 97.922 76.9949 100.995C75.2241 104.063 73.5679 107.198 72.0314 110.391C70.4949 113.583 69.0783 116.833 67.7866 120.136C66.4949 123.432 65.3231 126.776 64.2814 130.167C63.2397 133.552 62.3231 136.974 61.5366 140.432C60.7502 143.891 60.0939 147.37 59.5679 150.875C59.0418 154.38 58.6512 157.901 58.3856 161.438C58.1251 164.974 57.9949 168.516 58.0002 172.057C58.0002 175.604 58.1408 179.146 58.4064 182.677C58.6772 186.214 59.0783 189.735 59.6095 193.24C60.1408 196.745 60.8022 200.224 61.5991 203.677C62.3908 207.136 63.3126 210.552 64.3595 213.938C65.4116 217.328 66.5835 220.667 67.8856 223.964C69.1824 227.266 70.6043 230.511 72.1512 233.698C73.6929 236.891 75.3543 240.021 77.1304 243.089C78.9064 246.156 80.797 249.151 82.8022 252.078C84.8022 255.005 86.9116 257.849 89.1252 260.615C91.3439 263.386 93.6564 266.063 96.0731 268.662C98.4897 271.255 101 273.755 103.604 276.156L195.063 367.589C195.391 367.917 195.745 368.214 196.13 368.474C196.516 368.729 196.922 368.948 197.349 369.13C197.781 369.307 198.224 369.443 198.677 369.531C199.13 369.625 199.594 369.672 200.057 369.672C200.521 369.672 200.979 369.625 201.432 369.531C201.891 369.443 202.328 369.307 202.761 369.13C203.188 368.948 203.594 368.729 203.979 368.474C204.365 368.214 204.719 367.917 205.047 367.589L295.427 277.208C298.073 274.818 300.62 272.333 303.073 269.755C305.531 267.177 307.886 264.505 310.136 261.75C312.391 258.99 314.537 256.156 316.578 253.235C318.62 250.318 320.547 247.323 322.365 244.261C324.177 241.198 325.875 238.068 327.453 234.875C329.037 231.688 330.49 228.438 331.828 225.136C333.162 221.833 334.37 218.49 335.453 215.094C336.537 211.703 337.495 208.276 338.318 204.813C339.146 201.344 339.839 197.854 340.401 194.339C340.964 190.823 341.391 187.292 341.688 183.74C341.985 180.193 342.146 176.636 342.177 173.073C342.203 169.516 342.099 165.958 341.86 162.401C341.62 158.849 341.25 155.313 340.745 151.787C340.24 148.261 339.604 144.761 338.833 141.281C338.063 137.802 337.167 134.36 336.141 130.953C335.11 127.542 333.953 124.177 332.672 120.854C331.391 117.531 329.99 114.261 328.458 111.042C326.932 107.828 325.287 104.672 323.521 101.578C321.755 98.4845 319.875 95.4637 317.886 92.5106C315.891 89.5574 313.792 86.6877 311.583 83.8908C309.37 81.0991 307.063 78.3908 304.651 75.7762C302.235 73.1564 299.729 70.6304 297.125 68.1981C294.521 65.7658 291.833 63.4377 289.052 61.2085C286.276 58.9793 283.417 56.8595 280.479 54.8491C277.542 52.8335 274.531 50.9377 271.453 49.1512C268.37 47.3647 265.229 45.6929 262.021 44.146C258.813 42.5939 255.552 41.1668 252.24 39.8647C248.927 38.5574 245.568 37.3804 242.167 36.3283C238.766 35.2762 235.328 34.3543 231.854 33.5627C228.38 32.771 224.886 32.1095 221.365 31.5783C217.844 31.047 214.307 30.6512 210.755 30.3908C207.203 30.1251 203.646 29.9949 200.083 30.0002ZM200.083 238.443C197.912 238.443 195.745 238.333 193.578 238.12C191.417 237.906 189.266 237.589 187.136 237.167C185.005 236.74 182.896 236.214 180.818 235.583C178.735 234.953 176.693 234.219 174.682 233.386C172.677 232.557 170.714 231.625 168.797 230.604C166.88 229.578 165.016 228.464 163.208 227.255C161.401 226.047 159.656 224.75 157.979 223.375C156.297 221.995 154.688 220.537 153.151 219C151.615 217.458 150.156 215.854 148.776 214.172C147.401 212.49 146.104 210.745 144.896 208.938C143.688 207.13 142.573 205.271 141.547 203.354C140.526 201.432 139.599 199.474 138.766 197.464C137.932 195.453 137.203 193.412 136.573 191.328C135.943 189.25 135.412 187.141 134.99 185.011C134.568 182.88 134.245 180.729 134.037 178.568C133.823 176.406 133.714 174.235 133.714 172.063C133.719 169.886 133.823 167.719 134.037 165.557C134.25 163.391 134.568 161.245 134.995 159.115C135.417 156.979 135.948 154.875 136.578 152.797C137.208 150.714 137.943 148.672 138.771 146.662C139.604 144.651 140.531 142.693 141.557 140.776C142.583 138.86 143.698 136.995 144.906 135.188C146.115 133.38 147.412 131.636 148.792 129.958C150.172 128.276 151.63 126.667 153.167 125.13C154.703 123.594 156.313 122.136 157.995 120.761C159.672 119.38 161.417 118.089 163.224 116.88C165.031 115.672 166.896 114.557 168.813 113.531C170.729 112.505 172.693 111.578 174.703 110.75C176.714 109.917 178.755 109.188 180.839 108.557C182.917 107.927 185.021 107.396 187.156 106.974C189.287 106.552 191.438 106.235 193.599 106.021C195.761 105.807 197.932 105.703 200.104 105.703C202.276 105.703 204.448 105.813 206.61 106.026C208.776 106.24 210.922 106.557 213.052 106.985C215.188 107.406 217.292 107.932 219.37 108.568C221.453 109.198 223.495 109.932 225.505 110.766C227.511 111.594 229.474 112.526 231.391 113.552C233.307 114.573 235.172 115.693 236.979 116.901C238.787 118.11 240.526 119.401 242.208 120.781C243.886 122.162 245.495 123.62 247.031 125.162C248.568 126.698 250.026 128.307 251.406 129.985C252.781 131.667 254.078 133.412 255.281 135.219C256.49 137.026 257.604 138.891 258.63 140.807C259.651 142.724 260.583 144.688 261.412 146.698C262.245 148.708 262.974 150.75 263.604 152.833C264.235 154.912 264.761 157.021 265.182 159.151C265.61 161.281 265.927 163.432 266.136 165.594C266.349 167.761 266.453 169.927 266.453 172.099C266.448 174.271 266.339 176.438 266.125 178.599C265.906 180.761 265.583 182.906 265.156 185.037C264.735 187.167 264.203 189.271 263.568 191.349C262.938 193.427 262.203 195.469 261.37 197.474C260.537 199.485 259.61 201.443 258.583 203.36C257.557 205.271 256.438 207.136 255.229 208.938C254.021 210.745 252.729 212.485 251.349 214.167C249.974 215.844 248.516 217.448 246.979 218.985C245.443 220.521 243.833 221.979 242.156 223.354C240.474 224.735 238.735 226.026 236.927 227.235C235.12 228.443 233.261 229.557 231.344 230.583C229.432 231.604 227.469 232.537 225.464 233.37C223.458 234.198 221.412 234.932 219.333 235.563C217.255 236.198 215.151 236.724 213.021 237.151C210.891 237.578 208.745 237.896 206.583 238.115C204.422 238.328 202.255 238.438 200.083 238.443Z" fill="#030303"/>
<circle cx="200" cy="172" r="84" fill="#030303"/>
<mask id="mask0_63_77" style="mask-type:alpha" maskUnits="userSpaceOnUse" x="0" y="0" width="400" height="400">
<path d="M0 0L400 400H0V0Z" fill="#030303"/>
</mask>
<g mask="url(#mask0_63_77)">
<path d="M200.083 30.0002C196.542 29.9949 193 30.1252 189.464 30.3856C185.927 30.646 182.406 31.0418 178.901 31.5679C175.396 32.0887 171.917 32.7449 168.458 33.5314C165 34.3179 161.578 35.2293 158.193 36.2762C154.802 37.3179 151.458 38.4845 148.156 39.7762C144.854 41.0679 141.61 42.4845 138.412 44.021C135.219 45.5574 132.089 47.2137 129.016 48.9845C125.943 50.7554 122.943 52.6356 120.016 54.6356C117.083 56.6304 114.235 58.7345 111.464 60.9429C108.688 63.1512 106.005 65.4637 103.406 67.8699C100.807 70.2814 98.3022 72.7866 95.8908 75.3856C93.4793 77.9845 91.1668 80.672 88.9585 83.4429C86.7449 86.2137 84.646 89.0627 82.646 91.9949C80.6512 94.922 78.7658 97.922 76.9949 100.995C75.2241 104.063 73.5679 107.198 72.0314 110.391C70.4949 113.583 69.0783 116.833 67.7866 120.136C66.4949 123.432 65.3231 126.776 64.2814 130.167C63.2397 133.552 62.3231 136.974 61.5366 140.432C60.7502 143.891 60.0939 147.37 59.5679 150.875C59.0418 154.38 58.6512 157.901 58.3856 161.438C58.1251 164.974 57.9949 168.516 58.0002 172.057C58.0002 175.604 58.1408 179.146 58.4064 182.677C58.6772 186.214 59.0783 189.735 59.6095 193.24C60.1408 196.745 60.8022 200.224 61.5991 203.677C62.3908 207.136 63.3126 210.552 64.3595 213.938C65.4116 217.328 66.5835 220.667 67.8856 223.964C69.1824 227.266 70.6043 230.511 72.1512 233.698C73.6929 236.891 75.3543 240.021 77.1304 243.089C78.9064 246.156 80.797 249.151 82.8022 252.078C84.8022 255.005 86.9116 257.849 89.1252 260.615C91.3439 263.386 93.6564 266.063 96.0731 268.662C98.4897 271.255 101 273.755 103.604 276.156L195.063 367.589C195.391 367.917 195.745 368.214 196.13 368.474C196.516 368.729 196.922 368.948 197.349 369.13C197.781 369.307 198.224 369.443 198.677 369.531C199.13 369.625 199.594 369.672 200.057 369.672C200.521 369.672 200.979 369.625 201.432 369.531C201.891 369.443 202.328 369.307 202.761 369.13C203.188 368.948 203.594 368.729 203.979 368.474C204.365 368.214 204.719 367.917 205.047 367.589L295.427 277.208C298.073 274.818 300.62 272.333 303.073 269.755C305.531 267.177 307.886 264.505 310.136 261.75C312.391 258.99 314.537 256.156 316.578 253.235C318.62 250.318 320.547 247.323 322.365 244.261C324.177 241.198 325.875 238.068 327.453 234.875C329.037 231.688 330.49 228.438 331.828 225.136C333.162 221.833 334.37 218.49 335.453 215.094C336.537 211.703 337.495 208.276 338.318 204.813C339.146 201.344 339.839 197.854 340.401 194.339C340.964 190.823 341.391 187.292 341.688 183.74C341.985 180.193 342.146 176.636 342.177 173.073C342.203 169.516 342.099 165.958 341.86 162.401C341.62 158.849 341.25 155.313 340.745 151.787C340.24 148.261 339.604 144.761 338.833 141.281C338.063 137.802 337.167 134.36 336.141 130.953C335.11 127.542 333.953 124.177 332.672 120.854C331.391 117.531 329.99 114.261 328.458 111.042C326.932 107.828 325.287 104.672 323.521 101.578C321.755 98.4845 319.875 95.4637 317.886 92.5106C315.891 89.5574 313.792 86.6877 311.583 83.8908C309.37 81.0991 307.063 78.3908 304.651 75.7762C302.235 73.1564 299.729 70.6304 297.125 68.1981C294.521 65.7658 291.833 63.4377 289.052 61.2085C286.276 58.9793 283.417 56.8595 280.479 54.8491C277.542 52.8335 274.531 50.9377 271.453 49.1512C268.37 47.3647 265.229 45.6929 262.021 44.146C258.813 42.5939 255.552 41.1668 252.24 39.8647C248.927 38.5574 245.568 37.3804 242.167 36.3283C238.766 35.2762 235.328 34.3543 231.854 33.5627C228.38 32.771 224.886 32.1095 221.365 31.5783C217.844 31.047 214.307 30.6512 210.755 30.3908C207.203 30.1251 203.646 29.9949 200.083 30.0002ZM200.083 238.443C197.912 238.443 195.745 238.333 193.578 238.12C191.417 237.906 189.266 237.589 187.136 237.167C185.005 236.74 182.896 236.214 180.818 235.583C178.735 234.953 176.693 234.219 174.682 233.386C172.677 232.557 170.714 231.625 168.797 230.604C166.88 229.578 165.016 228.464 163.208 227.255C161.401 226.047 159.656 224.75 157.979 223.375C156.297 221.995 154.688 220.537 153.151 219C151.615 217.458 150.156 215.854 148.776 214.172C147.401 212.49 146.104 210.745 144.896 208.938C143.688 207.13 142.573 205.271 141.547 203.354C140.526 201.432 139.599 199.474 138.766 197.464C137.932 195.453 137.203 193.412 136.573 191.328C135.943 189.25 135.412 187.141 134.99 185.011C134.568 182.88 134.245 180.729 134.037 178.568C133.823 176.406 133.714 174.235 133.714 172.063C133.719 169.886 133.823 167.719 134.037 165.557C134.25 163.391 134.568 161.245 134.995 159.115C135.417 156.979 135.948 154.875 136.578 152.797C137.208 150.714 137.943 148.672 138.771 146.662C139.604 144.651 140.531 142.693 141.557 140.776C142.583 138.86 143.698 136.995 144.906 135.188C146.115 133.38 147.412 131.636 148.792 129.958C150.172 128.276 151.63 126.667 153.167 125.13C154.703 123.594 156.313 122.136 157.995 120.761C159.672 119.38 161.417 118.089 163.224 116.88C165.031 115.672 166.896 114.557 168.813 113.531C170.729 112.505 172.693 111.578 174.703 110.75C176.714 109.917 178.755 109.188 180.839 108.557C182.917 107.927 185.021 107.396 187.156 106.974C189.287 106.552 191.438 106.235 193.599 106.021C195.761 105.807 197.932 105.703 200.104 105.703C202.276 105.703 204.448 105.813 206.61 106.026C208.776 106.24 210.922 106.557 213.052 106.985C215.188 107.406 217.292 107.932 219.37 108.568C221.453 109.198 223.495 109.932 225.505 110.766C227.511 111.594 229.474 112.526 231.391 113.552C233.307 114.573 235.172 115.693 236.979 116.901C238.787 118.11 240.526 119.401 242.208 120.781C243.886 122.162 245.495 123.62 247.031 125.162C248.568 126.698 250.026 128.307 251.406 129.985C252.781 131.667 254.078 133.412 255.281 135.219C256.49 137.026 257.604 138.891 258.63 140.807C259.651 142.724 260.583 144.688 261.412 146.698C262.245 148.708 262.974 150.75 263.604 152.833C264.235 154.912 264.761 157.021 265.182 159.151C265.61 161.281 265.927 163.432 266.136 165.594C266.349 167.761 266.453 169.927 266.453 172.099C266.448 174.271 266.339 176.438 266.125 178.599C265.906 180.761 265.583 182.906 265.156 185.037C264.735 187.167 264.203 189.271 263.568 191.349C262.938 193.427 262.203 195.469 261.37 197.474C260.537 199.485 259.61 201.443 258.583 203.36C257.557 205.271 256.438 207.136 255.229 208.938C254.021 210.745 252.729 212.485 251.349 214.167C249.974 215.844 248.516 217.448 246.979 218.985C245.443 220.521 243.833 221.979 242.156 223.354C240.474 224.735 238.735 226.026 236.927 227.235C235.12 228.443 233.261 229.557 231.344 230.583C229.432 231.604 227.469 232.537 225.464 233.37C223.458 234.198 221.412 234.932 219.333 235.563C217.255 236.198 215.151 236.724 213.021 237.151C210.891 237.578 208.745 237.896 206.583 238.115C204.422 238.328 202.255 238.438 200.083 238.443Z" fill="#FE5001"/>
<circle cx="200" cy="172" r="84" fill="#FE5001"/>
</g>
<path d="M400 400L286.317 286.317L295.427 277.208C298.073 274.817 300.62 272.333 303.073 269.755C305.531 267.177 307.886 264.505 310.136 261.75C312.391 258.99 314.537 256.156 316.578 253.234C318.62 250.318 320.547 247.323 322.364 244.261C324.177 241.198 325.875 238.068 327.453 234.875C329.036 231.688 330.49 228.438 331.828 225.136C333.161 221.834 334.37 218.49 335.453 215.094C336.536 211.703 337.494 208.276 338.317 204.812C339.145 201.344 339.839 197.854 340.401 194.339C340.964 190.823 341.391 187.291 341.688 183.739C341.984 180.193 342.146 176.636 342.177 173.073C342.203 169.516 342.099 165.959 341.859 162.401C341.62 158.849 341.25 155.312 340.745 151.786C340.24 148.26 339.604 144.76 338.833 141.281C338.062 137.802 337.167 134.359 336.141 130.953C335.109 127.542 333.953 124.177 332.672 120.854C331.391 117.532 329.989 114.261 328.458 111.042C326.932 107.828 325.286 104.672 323.521 101.578C321.755 98.4846 319.875 95.4637 317.886 92.5107C315.891 89.5576 313.791 86.6875 311.583 83.8906C309.37 81.0991 307.063 78.3908 304.651 75.7764C302.235 73.1566 299.729 70.6305 297.125 68.1982C294.521 65.766 291.833 63.4372 289.052 61.208C286.276 58.979 283.417 56.8589 280.479 54.8486C277.542 52.833 274.531 50.9378 271.453 49.1514C268.37 47.3649 265.229 45.6924 262.021 44.1455C258.812 42.5935 255.552 41.1663 252.239 39.8643C248.927 38.5571 245.568 37.3801 242.167 36.3281C238.766 35.2761 235.328 34.3542 231.854 33.5625C228.381 32.7708 224.885 32.1094 221.364 31.5781C217.844 31.0469 214.307 30.651 210.755 30.3906C207.203 30.125 203.645 29.9948 200.083 30C196.542 29.9948 193 30.1253 189.464 30.3857C185.927 30.6462 182.406 31.0414 178.901 31.5674C175.396 32.0882 171.916 32.7448 168.458 33.5312C165 34.3177 161.578 35.2295 158.192 36.2764C154.802 37.318 151.458 38.4848 148.156 39.7764C144.854 41.068 141.609 42.4841 138.411 44.0205C135.218 45.5569 132.088 47.2136 129.016 48.9844C125.943 50.7552 122.943 52.6358 120.016 54.6357C117.084 56.6304 114.235 58.7342 111.464 60.9424C108.688 63.1507 106.005 65.4639 103.406 67.8701C100.807 70.2815 98.302 72.7868 95.8906 75.3857C93.4792 77.9846 91.1663 80.6716 88.958 83.4424C88.1395 84.467 87.3368 85.5026 86.5488 86.5488L0 0H400V400Z" fill="white"/>
<path d="M172.872 132.163C174.453 146.103 186.231 156.628 200.235 156.641C214.249 156.628 226.164 146.116 227.604 132.163L239.51 132.296C237.89 152.558 220.855 168.644 200.244 168.644C179.637 168.644 162.599 152.558 160.969 132.296L172.872 132.163ZM156.773 116.962C145.361 116.962 142.185 118.976 140.665 130.311L127.271 234.811C125.747 246.143 132.025 251 143.444 251H257.029C268.454 251 274.735 246.143 273.202 234.811L259.821 130.311C258.285 118.976 255.122 116.962 243.709 116.962H156.773Z" fill="white"/>
<path d="M160.969 108.474H172.872C174.453 94.5409 186.23 84.016 200.235 84.0031C214.248 84.016 226.164 94.528 227.604 108.474H239.51C237.883 88.2279 220.855 72 200.244 72C179.637 72.0032 162.586 88.2279 160.969 108.474Z" fill="white"/>
</svg>
